<svg width="125" height="126" viewBox="0 0 125 126" fill="none" xmlns="http://www.w3.org/2000/svg">
<g id="alien">
<path id="Vector" d="M62.245 117.171C85.4478 117.171 104.257 98.3613 104.257 75.1586C104.257 51.9558 85.4478 33.1462 62.245 33.1462C39.0422 33.1462 20.2327 51.9558 20.2327 75.1586C20.2327 98.3613 39.0422 117.171 62.245 117.171Z" fill="#2F2E41"/>
<path id="Vector_2" d="M46.2692 102.761L25.8223 113L31.5373 124.413L51.9843 114.173L46.2692 102.761Z" fill="#2F2E41"/>
<path id="Vector_3" d="M34.2328 123.255C35.4454 121.416 32.4528 117.304 27.5488 114.07C22.6447 110.837 17.6862 109.706 16.4736 111.545C15.261 113.384 18.2536 117.496 23.1577 120.73C28.0618 123.963 33.0203 125.094 34.2328 123.255Z" fill="#2F2E41"/>
<path id="Vector_4" d="M78.2209 102.761L72.5059 114.173L92.9528 124.413L98.6679 113.001L78.2209 102.761Z" fill="#2F2E41"/>
<path id="Vector_5" d="M101.332 120.73C106.236 117.496 109.229 113.384 108.016 111.545C106.804 109.706 101.845 110.836 96.9411 114.07C92.0371 117.303 89.0445 121.416 90.2571 123.255C91.4696 125.094 96.4281 123.963 101.332 120.73Z" fill="#2F2E41"/>
<path id="Vector_6" d="M59.3037 79.2408C67.2338 79.2408 73.6624 72.8123 73.6624 64.8822C73.6624 56.9521 67.2338 50.5236 59.3037 50.5236C51.3737 50.5236 44.9451 56.9521 44.9451 64.8822C44.9451 72.8123 51.3737 79.2408 59.3037 79.2408Z" fill="white"/>
<path id="Vector_7" d="M62.7964 62.1294C64.6578 60.2681 64.647 57.2396 62.7725 55.3651C60.898 53.4905 57.8695 53.4799 56.0082 55.3412C54.1468 57.2025 54.1575 60.231 56.032 62.1055C57.9066 63.98 60.9351 63.9908 62.7964 62.1294Z" fill="#3F3D56"/>
<path id="Vector_8" d="M95.3869 29.4537C96.0186 13.9002 82.6137 0.726147 65.4461 0.0288171C48.2784 -0.668513 33.8491 11.3748 33.2173 26.9284C32.5855 42.482 44.5192 46.0159 61.6869 46.7133C78.8546 47.4107 94.755 45.0073 95.3869 29.4537Z" fill="#6C63FF"/>
<path id="Vector_9" d="M119.604 97.1578C122.367 94.7855 118.481 85.7264 110.924 76.9237C103.368 68.1211 95.0014 62.9083 92.238 65.2806C89.4746 67.6529 93.3604 76.712 100.917 85.5146C108.474 94.3173 116.84 99.5301 119.604 97.1578Z" fill="#2F2E41"/>
<path id="Vector_10" d="M23.6901 85.5146C31.2469 76.712 35.1327 67.6529 32.3693 65.2806C29.6059 62.9083 21.2397 68.1211 13.6828 76.9237C6.12602 85.7263 2.2402 94.7855 5.00362 97.1578C7.76704 99.5301 16.1333 94.3173 23.6901 85.5146Z" fill="#2F2E41"/>
<path id="Vector_11" d="M73.7837 91.7152C74.2384 94.2129 73.6822 96.789 72.2376 98.8766C70.7929 100.964 68.5782 102.393 66.0805 102.847C63.5828 103.302 61.0067 102.746 58.919 101.301C56.8314 99.8566 55.4031 97.6418 54.9484 95.144L54.945 95.1255C54.0033 89.9234 58.0254 88.0825 63.2276 87.1408C68.4297 86.1991 72.842 86.5131 73.7837 91.7152Z" fill="white"/>
</g>
</svg>
